<svg width="201" height="150" viewBox="0 0 201 150" fill="none" xmlns="http://www.w3.org/2000/svg">
<path d="M150.49 49.3307C177.228 49.3307 199.024 70.353 200.49 96.6784C199.21 42.7494 154.887 0.149902 100.49 0.149902C46.0926 0.149902 0.48999 44.2069 0.48999 99.2347C0.48999 126.838 22.8364 149.144 50.49 149.144C78.1436 149.144 100.49 126.838 100.49 99.2347C100.49 71.6311 122.836 49.3251 150.49 49.3251V49.3307Z" fill="#0F62FE"/>
<path d="M150.49 149.15C178.104 149.15 200.49 126.805 200.49 99.2403C200.49 71.676 178.104 49.3307 150.49 49.3307C122.876 49.3307 100.49 71.676 100.49 99.2403C100.49 126.805 122.876 149.15 150.49 149.15Z" fill="#003BCB"/>
</svg>
